<mxfile host="app.diagrams.net" modified="2020-12-14T18:39:34.213Z" agent="5.0 (Windows NT 10.0; Win64; x64) AppleWebKit/537.36 (KHTML, like Gecko) Chrome/87.0.4280.66 Safari/537.36" etag="o7IcHT8c2zflTGLTVMKH" version="14.0.1" type="github">
  <diagram id="C5RBs43oDa-KdzZeNtuy" name="Page-1">
    <mxGraphModel dx="870" dy="595" grid="0" gridSize="10" guides="1" tooltips="1" connect="1" arrows="1" fold="1" page="1" pageScale="1" pageWidth="827" pageHeight="1169" math="0" shadow="0">
      <root>
        <mxCell id="WIyWlLk6GJQsqaUBKTNV-0" />
        <mxCell id="WIyWlLk6GJQsqaUBKTNV-1" parent="WIyWlLk6GJQsqaUBKTNV-0" />
        <mxCell id="JyhttoTleoo9SE21aR-v-7" style="edgeStyle=orthogonalEdgeStyle;rounded=0;orthogonalLoop=1;jettySize=auto;html=1;exitX=1;exitY=0.5;exitDx=0;exitDy=0;entryX=0;entryY=0.5;entryDx=0;entryDy=0;" edge="1" parent="WIyWlLk6GJQsqaUBKTNV-1" source="WIyWlLk6GJQsqaUBKTNV-3" target="JyhttoTleoo9SE21aR-v-0">
          <mxGeometry relative="1" as="geometry" />
        </mxCell>
        <mxCell id="JyhttoTleoo9SE21aR-v-20" style="edgeStyle=orthogonalEdgeStyle;rounded=0;orthogonalLoop=1;jettySize=auto;html=1;exitX=0;exitY=0;exitDx=0;exitDy=0;entryX=0.75;entryY=0;entryDx=0;entryDy=0;" edge="1" parent="WIyWlLk6GJQsqaUBKTNV-1">
          <mxGeometry relative="1" as="geometry">
            <mxPoint x="86" y="110" as="sourcePoint" />
            <mxPoint x="268.5" y="110" as="targetPoint" />
            <Array as="points">
              <mxPoint x="100" y="110" />
              <mxPoint x="100" y="80" />
              <mxPoint x="269" y="80" />
            </Array>
          </mxGeometry>
        </mxCell>
        <mxCell id="WIyWlLk6GJQsqaUBKTNV-3" value="Conv1" style="rounded=1;whiteSpace=wrap;html=1;fontSize=12;glass=0;strokeWidth=1;shadow=0;fillColor=#ffe6cc;strokeColor=#d79b00;" parent="WIyWlLk6GJQsqaUBKTNV-1" vertex="1">
          <mxGeometry x="120" y="90" width="70" height="40" as="geometry" />
        </mxCell>
        <mxCell id="JyhttoTleoo9SE21aR-v-8" style="edgeStyle=orthogonalEdgeStyle;rounded=0;orthogonalLoop=1;jettySize=auto;html=1;exitX=1;exitY=0.5;exitDx=0;exitDy=0;" edge="1" parent="WIyWlLk6GJQsqaUBKTNV-1" source="JyhttoTleoo9SE21aR-v-0" target="JyhttoTleoo9SE21aR-v-1">
          <mxGeometry relative="1" as="geometry" />
        </mxCell>
        <mxCell id="JyhttoTleoo9SE21aR-v-0" value="GN&lt;br&gt;16" style="rounded=1;whiteSpace=wrap;html=1;fontSize=12;glass=0;strokeWidth=1;shadow=0;fillColor=#d5e8d4;strokeColor=#82b366;" vertex="1" parent="WIyWlLk6GJQsqaUBKTNV-1">
          <mxGeometry x="220" y="90" width="40" height="40" as="geometry" />
        </mxCell>
        <mxCell id="JyhttoTleoo9SE21aR-v-9" style="edgeStyle=orthogonalEdgeStyle;rounded=0;orthogonalLoop=1;jettySize=auto;html=1;exitX=1;exitY=0.5;exitDx=0;exitDy=0;entryX=0;entryY=0.5;entryDx=0;entryDy=0;" edge="1" parent="WIyWlLk6GJQsqaUBKTNV-1" source="JyhttoTleoo9SE21aR-v-1" target="JyhttoTleoo9SE21aR-v-3">
          <mxGeometry relative="1" as="geometry" />
        </mxCell>
        <mxCell id="JyhttoTleoo9SE21aR-v-1" value="Relu" style="rounded=1;whiteSpace=wrap;html=1;fontSize=12;glass=0;strokeWidth=1;shadow=0;fillColor=#fff2cc;strokeColor=#d6b656;" vertex="1" parent="WIyWlLk6GJQsqaUBKTNV-1">
          <mxGeometry x="280" y="90" width="30" height="40" as="geometry" />
        </mxCell>
        <mxCell id="JyhttoTleoo9SE21aR-v-10" style="edgeStyle=orthogonalEdgeStyle;rounded=0;orthogonalLoop=1;jettySize=auto;html=1;exitX=1;exitY=0.5;exitDx=0;exitDy=0;entryX=0;entryY=0.5;entryDx=0;entryDy=0;" edge="1" parent="WIyWlLk6GJQsqaUBKTNV-1" source="JyhttoTleoo9SE21aR-v-3" target="JyhttoTleoo9SE21aR-v-4">
          <mxGeometry relative="1" as="geometry" />
        </mxCell>
        <mxCell id="JyhttoTleoo9SE21aR-v-3" value="Conv2" style="rounded=1;whiteSpace=wrap;html=1;fontSize=12;glass=0;strokeWidth=1;shadow=0;fillColor=#ffe6cc;strokeColor=#d79b00;" vertex="1" parent="WIyWlLk6GJQsqaUBKTNV-1">
          <mxGeometry x="340" y="90" width="70" height="40" as="geometry" />
        </mxCell>
        <mxCell id="JyhttoTleoo9SE21aR-v-11" style="edgeStyle=orthogonalEdgeStyle;rounded=0;orthogonalLoop=1;jettySize=auto;html=1;exitX=1;exitY=0.5;exitDx=0;exitDy=0;entryX=0;entryY=0.5;entryDx=0;entryDy=0;" edge="1" parent="WIyWlLk6GJQsqaUBKTNV-1" source="JyhttoTleoo9SE21aR-v-4" target="JyhttoTleoo9SE21aR-v-5">
          <mxGeometry relative="1" as="geometry" />
        </mxCell>
        <mxCell id="JyhttoTleoo9SE21aR-v-4" value="GN&lt;br&gt;16" style="rounded=1;whiteSpace=wrap;html=1;fontSize=12;glass=0;strokeWidth=1;shadow=0;fillColor=#d5e8d4;strokeColor=#82b366;" vertex="1" parent="WIyWlLk6GJQsqaUBKTNV-1">
          <mxGeometry x="440" y="90" width="40" height="40" as="geometry" />
        </mxCell>
        <mxCell id="JyhttoTleoo9SE21aR-v-5" value="Relu" style="rounded=1;whiteSpace=wrap;html=1;fontSize=12;glass=0;strokeWidth=1;shadow=0;fillColor=#fff2cc;strokeColor=#d6b656;" vertex="1" parent="WIyWlLk6GJQsqaUBKTNV-1">
          <mxGeometry x="500" y="90" width="30" height="40" as="geometry" />
        </mxCell>
        <mxCell id="JyhttoTleoo9SE21aR-v-13" style="edgeStyle=orthogonalEdgeStyle;rounded=0;orthogonalLoop=1;jettySize=auto;html=1;exitX=1;exitY=0.5;exitDx=0;exitDy=0;entryX=0;entryY=0.5;entryDx=0;entryDy=0;" edge="1" parent="WIyWlLk6GJQsqaUBKTNV-1" target="WIyWlLk6GJQsqaUBKTNV-3">
          <mxGeometry relative="1" as="geometry">
            <mxPoint x="70" y="110" as="sourcePoint" />
          </mxGeometry>
        </mxCell>
        <mxCell id="JyhttoTleoo9SE21aR-v-21" style="edgeStyle=orthogonalEdgeStyle;rounded=0;orthogonalLoop=1;jettySize=auto;html=1;exitX=0;exitY=0;exitDx=0;exitDy=0;entryX=0.75;entryY=0;entryDx=0;entryDy=0;" edge="1" parent="WIyWlLk6GJQsqaUBKTNV-1">
          <mxGeometry relative="1" as="geometry">
            <mxPoint x="310" y="110" as="sourcePoint" />
            <mxPoint x="492.5" y="110" as="targetPoint" />
            <Array as="points">
              <mxPoint x="322.5" y="110" />
              <mxPoint x="322.5" y="80" />
              <mxPoint x="492.5" y="80" />
            </Array>
          </mxGeometry>
        </mxCell>
        <mxCell id="JyhttoTleoo9SE21aR-v-22" style="edgeStyle=orthogonalEdgeStyle;rounded=0;orthogonalLoop=1;jettySize=auto;html=1;exitX=1;exitY=0.5;exitDx=0;exitDy=0;entryX=0;entryY=0.5;entryDx=0;entryDy=0;" edge="1" parent="WIyWlLk6GJQsqaUBKTNV-1" source="JyhttoTleoo9SE21aR-v-24" target="JyhttoTleoo9SE21aR-v-26">
          <mxGeometry relative="1" as="geometry" />
        </mxCell>
        <mxCell id="JyhttoTleoo9SE21aR-v-23" style="edgeStyle=orthogonalEdgeStyle;rounded=0;orthogonalLoop=1;jettySize=auto;html=1;exitX=0;exitY=0;exitDx=0;exitDy=0;entryX=0.75;entryY=0;entryDx=0;entryDy=0;" edge="1" parent="WIyWlLk6GJQsqaUBKTNV-1">
          <mxGeometry relative="1" as="geometry">
            <mxPoint x="86" y="210" as="sourcePoint" />
            <mxPoint x="268.5" y="210" as="targetPoint" />
            <Array as="points">
              <mxPoint x="100" y="210" />
              <mxPoint x="100" y="180" />
              <mxPoint x="269" y="180" />
            </Array>
          </mxGeometry>
        </mxCell>
        <mxCell id="JyhttoTleoo9SE21aR-v-24" value="Conv3" style="rounded=1;whiteSpace=wrap;html=1;fontSize=12;glass=0;strokeWidth=1;shadow=0;fillColor=#ffe6cc;strokeColor=#d79b00;" vertex="1" parent="WIyWlLk6GJQsqaUBKTNV-1">
          <mxGeometry x="120" y="190" width="70" height="40" as="geometry" />
        </mxCell>
        <mxCell id="JyhttoTleoo9SE21aR-v-25" style="edgeStyle=orthogonalEdgeStyle;rounded=0;orthogonalLoop=1;jettySize=auto;html=1;exitX=1;exitY=0.5;exitDx=0;exitDy=0;" edge="1" parent="WIyWlLk6GJQsqaUBKTNV-1" source="JyhttoTleoo9SE21aR-v-26" target="JyhttoTleoo9SE21aR-v-28">
          <mxGeometry relative="1" as="geometry" />
        </mxCell>
        <mxCell id="JyhttoTleoo9SE21aR-v-26" value="GN&lt;br&gt;16" style="rounded=1;whiteSpace=wrap;html=1;fontSize=12;glass=0;strokeWidth=1;shadow=0;fillColor=#d5e8d4;strokeColor=#82b366;" vertex="1" parent="WIyWlLk6GJQsqaUBKTNV-1">
          <mxGeometry x="220" y="190" width="40" height="40" as="geometry" />
        </mxCell>
        <mxCell id="JyhttoTleoo9SE21aR-v-27" style="edgeStyle=orthogonalEdgeStyle;rounded=0;orthogonalLoop=1;jettySize=auto;html=1;exitX=1;exitY=0.5;exitDx=0;exitDy=0;entryX=0;entryY=0.5;entryDx=0;entryDy=0;" edge="1" parent="WIyWlLk6GJQsqaUBKTNV-1" source="JyhttoTleoo9SE21aR-v-28" target="JyhttoTleoo9SE21aR-v-30">
          <mxGeometry relative="1" as="geometry" />
        </mxCell>
        <mxCell id="JyhttoTleoo9SE21aR-v-28" value="Relu" style="rounded=1;whiteSpace=wrap;html=1;fontSize=12;glass=0;strokeWidth=1;shadow=0;fillColor=#fff2cc;strokeColor=#d6b656;" vertex="1" parent="WIyWlLk6GJQsqaUBKTNV-1">
          <mxGeometry x="280" y="190" width="30" height="40" as="geometry" />
        </mxCell>
        <mxCell id="JyhttoTleoo9SE21aR-v-29" style="edgeStyle=orthogonalEdgeStyle;rounded=0;orthogonalLoop=1;jettySize=auto;html=1;exitX=1;exitY=0.5;exitDx=0;exitDy=0;entryX=0;entryY=0.5;entryDx=0;entryDy=0;" edge="1" parent="WIyWlLk6GJQsqaUBKTNV-1" source="JyhttoTleoo9SE21aR-v-30" target="JyhttoTleoo9SE21aR-v-32">
          <mxGeometry relative="1" as="geometry" />
        </mxCell>
        <mxCell id="JyhttoTleoo9SE21aR-v-30" value="Conv4" style="rounded=1;whiteSpace=wrap;html=1;fontSize=12;glass=0;strokeWidth=1;shadow=0;fillColor=#ffe6cc;strokeColor=#d79b00;" vertex="1" parent="WIyWlLk6GJQsqaUBKTNV-1">
          <mxGeometry x="340" y="190" width="70" height="40" as="geometry" />
        </mxCell>
        <mxCell id="JyhttoTleoo9SE21aR-v-31" style="edgeStyle=orthogonalEdgeStyle;rounded=0;orthogonalLoop=1;jettySize=auto;html=1;exitX=1;exitY=0.5;exitDx=0;exitDy=0;entryX=0;entryY=0.5;entryDx=0;entryDy=0;" edge="1" parent="WIyWlLk6GJQsqaUBKTNV-1" source="JyhttoTleoo9SE21aR-v-32" target="JyhttoTleoo9SE21aR-v-33">
          <mxGeometry relative="1" as="geometry" />
        </mxCell>
        <mxCell id="JyhttoTleoo9SE21aR-v-32" value="GN&lt;br&gt;16" style="rounded=1;whiteSpace=wrap;html=1;fontSize=12;glass=0;strokeWidth=1;shadow=0;fillColor=#d5e8d4;strokeColor=#82b366;" vertex="1" parent="WIyWlLk6GJQsqaUBKTNV-1">
          <mxGeometry x="440" y="190" width="40" height="40" as="geometry" />
        </mxCell>
        <mxCell id="JyhttoTleoo9SE21aR-v-33" value="Relu" style="rounded=1;whiteSpace=wrap;html=1;fontSize=12;glass=0;strokeWidth=1;shadow=0;fillColor=#fff2cc;strokeColor=#d6b656;" vertex="1" parent="WIyWlLk6GJQsqaUBKTNV-1">
          <mxGeometry x="500" y="190" width="30" height="40" as="geometry" />
        </mxCell>
        <mxCell id="JyhttoTleoo9SE21aR-v-34" style="edgeStyle=orthogonalEdgeStyle;rounded=0;orthogonalLoop=1;jettySize=auto;html=1;exitX=1;exitY=0.5;exitDx=0;exitDy=0;entryX=0;entryY=0.5;entryDx=0;entryDy=0;" edge="1" parent="WIyWlLk6GJQsqaUBKTNV-1" target="JyhttoTleoo9SE21aR-v-24" source="JyhttoTleoo9SE21aR-v-5">
          <mxGeometry relative="1" as="geometry">
            <mxPoint x="70" y="210" as="sourcePoint" />
            <Array as="points">
              <mxPoint x="550" y="110" />
              <mxPoint x="550" y="160" />
              <mxPoint x="70" y="160" />
              <mxPoint x="70" y="210" />
            </Array>
          </mxGeometry>
        </mxCell>
        <mxCell id="JyhttoTleoo9SE21aR-v-35" style="edgeStyle=orthogonalEdgeStyle;rounded=0;orthogonalLoop=1;jettySize=auto;html=1;exitX=0;exitY=0;exitDx=0;exitDy=0;entryX=0.75;entryY=0;entryDx=0;entryDy=0;" edge="1" parent="WIyWlLk6GJQsqaUBKTNV-1">
          <mxGeometry relative="1" as="geometry">
            <mxPoint x="310" y="210" as="sourcePoint" />
            <mxPoint x="492.5" y="210" as="targetPoint" />
            <Array as="points">
              <mxPoint x="322.5" y="210" />
              <mxPoint x="322.5" y="180" />
              <mxPoint x="492.5" y="180" />
            </Array>
          </mxGeometry>
        </mxCell>
        <mxCell id="JyhttoTleoo9SE21aR-v-36" style="edgeStyle=orthogonalEdgeStyle;rounded=0;orthogonalLoop=1;jettySize=auto;html=1;exitX=1;exitY=0.5;exitDx=0;exitDy=0;entryX=0;entryY=0.5;entryDx=0;entryDy=0;" edge="1" parent="WIyWlLk6GJQsqaUBKTNV-1" source="JyhttoTleoo9SE21aR-v-38" target="JyhttoTleoo9SE21aR-v-40">
          <mxGeometry relative="1" as="geometry" />
        </mxCell>
        <mxCell id="JyhttoTleoo9SE21aR-v-38" value="Conv1" style="rounded=1;whiteSpace=wrap;html=1;fontSize=12;glass=0;strokeWidth=1;shadow=0;fillColor=#ffe6cc;strokeColor=#d79b00;" vertex="1" parent="WIyWlLk6GJQsqaUBKTNV-1">
          <mxGeometry x="120" y="320" width="70" height="40" as="geometry" />
        </mxCell>
        <mxCell id="JyhttoTleoo9SE21aR-v-39" style="edgeStyle=orthogonalEdgeStyle;rounded=0;orthogonalLoop=1;jettySize=auto;html=1;exitX=1;exitY=0.5;exitDx=0;exitDy=0;" edge="1" parent="WIyWlLk6GJQsqaUBKTNV-1" source="JyhttoTleoo9SE21aR-v-40" target="JyhttoTleoo9SE21aR-v-42">
          <mxGeometry relative="1" as="geometry" />
        </mxCell>
        <mxCell id="JyhttoTleoo9SE21aR-v-40" value="GN&lt;br&gt;16" style="rounded=1;whiteSpace=wrap;html=1;fontSize=12;glass=0;strokeWidth=1;shadow=0;fillColor=#d5e8d4;strokeColor=#82b366;" vertex="1" parent="WIyWlLk6GJQsqaUBKTNV-1">
          <mxGeometry x="220" y="320" width="40" height="40" as="geometry" />
        </mxCell>
        <mxCell id="JyhttoTleoo9SE21aR-v-41" style="edgeStyle=orthogonalEdgeStyle;rounded=0;orthogonalLoop=1;jettySize=auto;html=1;exitX=1;exitY=0.5;exitDx=0;exitDy=0;entryX=0;entryY=0.5;entryDx=0;entryDy=0;" edge="1" parent="WIyWlLk6GJQsqaUBKTNV-1" source="JyhttoTleoo9SE21aR-v-42" target="JyhttoTleoo9SE21aR-v-44">
          <mxGeometry relative="1" as="geometry" />
        </mxCell>
        <mxCell id="JyhttoTleoo9SE21aR-v-42" value="Relu" style="rounded=1;whiteSpace=wrap;html=1;fontSize=12;glass=0;strokeWidth=1;shadow=0;fillColor=#fff2cc;strokeColor=#d6b656;" vertex="1" parent="WIyWlLk6GJQsqaUBKTNV-1">
          <mxGeometry x="280" y="320" width="30" height="40" as="geometry" />
        </mxCell>
        <mxCell id="JyhttoTleoo9SE21aR-v-43" style="edgeStyle=orthogonalEdgeStyle;rounded=0;orthogonalLoop=1;jettySize=auto;html=1;exitX=1;exitY=0.5;exitDx=0;exitDy=0;entryX=0;entryY=0.5;entryDx=0;entryDy=0;" edge="1" parent="WIyWlLk6GJQsqaUBKTNV-1" source="JyhttoTleoo9SE21aR-v-44" target="JyhttoTleoo9SE21aR-v-46">
          <mxGeometry relative="1" as="geometry" />
        </mxCell>
        <mxCell id="JyhttoTleoo9SE21aR-v-44" value="Conv2" style="rounded=1;whiteSpace=wrap;html=1;fontSize=12;glass=0;strokeWidth=1;shadow=0;fillColor=#ffe6cc;strokeColor=#d79b00;" vertex="1" parent="WIyWlLk6GJQsqaUBKTNV-1">
          <mxGeometry x="340" y="320" width="70" height="40" as="geometry" />
        </mxCell>
        <mxCell id="JyhttoTleoo9SE21aR-v-45" style="edgeStyle=orthogonalEdgeStyle;rounded=0;orthogonalLoop=1;jettySize=auto;html=1;exitX=1;exitY=0.5;exitDx=0;exitDy=0;entryX=0;entryY=0.5;entryDx=0;entryDy=0;" edge="1" parent="WIyWlLk6GJQsqaUBKTNV-1" source="JyhttoTleoo9SE21aR-v-46" target="JyhttoTleoo9SE21aR-v-47">
          <mxGeometry relative="1" as="geometry" />
        </mxCell>
        <mxCell id="JyhttoTleoo9SE21aR-v-46" value="GN&lt;br&gt;16" style="rounded=1;whiteSpace=wrap;html=1;fontSize=12;glass=0;strokeWidth=1;shadow=0;fillColor=#d5e8d4;strokeColor=#82b366;" vertex="1" parent="WIyWlLk6GJQsqaUBKTNV-1">
          <mxGeometry x="440" y="320" width="40" height="40" as="geometry" />
        </mxCell>
        <mxCell id="JyhttoTleoo9SE21aR-v-47" value="Relu" style="rounded=1;whiteSpace=wrap;html=1;fontSize=12;glass=0;strokeWidth=1;shadow=0;fillColor=#fff2cc;strokeColor=#d6b656;" vertex="1" parent="WIyWlLk6GJQsqaUBKTNV-1">
          <mxGeometry x="500" y="320" width="30" height="40" as="geometry" />
        </mxCell>
        <mxCell id="JyhttoTleoo9SE21aR-v-48" style="edgeStyle=orthogonalEdgeStyle;rounded=0;orthogonalLoop=1;jettySize=auto;html=1;exitX=1;exitY=0.5;exitDx=0;exitDy=0;entryX=0;entryY=0.5;entryDx=0;entryDy=0;" edge="1" parent="WIyWlLk6GJQsqaUBKTNV-1" target="JyhttoTleoo9SE21aR-v-38">
          <mxGeometry relative="1" as="geometry">
            <mxPoint x="70" y="340" as="sourcePoint" />
          </mxGeometry>
        </mxCell>
        <mxCell id="JyhttoTleoo9SE21aR-v-50" style="edgeStyle=orthogonalEdgeStyle;rounded=0;orthogonalLoop=1;jettySize=auto;html=1;exitX=1;exitY=0.5;exitDx=0;exitDy=0;entryX=0;entryY=0.5;entryDx=0;entryDy=0;" edge="1" parent="WIyWlLk6GJQsqaUBKTNV-1" source="JyhttoTleoo9SE21aR-v-52" target="JyhttoTleoo9SE21aR-v-54">
          <mxGeometry relative="1" as="geometry" />
        </mxCell>
        <mxCell id="JyhttoTleoo9SE21aR-v-52" value="Conv3" style="rounded=1;whiteSpace=wrap;html=1;fontSize=12;glass=0;strokeWidth=1;shadow=0;fillColor=#ffe6cc;strokeColor=#d79b00;" vertex="1" parent="WIyWlLk6GJQsqaUBKTNV-1">
          <mxGeometry x="120" y="420" width="70" height="40" as="geometry" />
        </mxCell>
        <mxCell id="JyhttoTleoo9SE21aR-v-53" style="edgeStyle=orthogonalEdgeStyle;rounded=0;orthogonalLoop=1;jettySize=auto;html=1;exitX=1;exitY=0.5;exitDx=0;exitDy=0;" edge="1" parent="WIyWlLk6GJQsqaUBKTNV-1" source="JyhttoTleoo9SE21aR-v-54" target="JyhttoTleoo9SE21aR-v-56">
          <mxGeometry relative="1" as="geometry" />
        </mxCell>
        <mxCell id="JyhttoTleoo9SE21aR-v-54" value="GN&lt;br&gt;16" style="rounded=1;whiteSpace=wrap;html=1;fontSize=12;glass=0;strokeWidth=1;shadow=0;fillColor=#d5e8d4;strokeColor=#82b366;" vertex="1" parent="WIyWlLk6GJQsqaUBKTNV-1">
          <mxGeometry x="220" y="420" width="40" height="40" as="geometry" />
        </mxCell>
        <mxCell id="JyhttoTleoo9SE21aR-v-55" style="edgeStyle=orthogonalEdgeStyle;rounded=0;orthogonalLoop=1;jettySize=auto;html=1;exitX=1;exitY=0.5;exitDx=0;exitDy=0;entryX=0;entryY=0.5;entryDx=0;entryDy=0;" edge="1" parent="WIyWlLk6GJQsqaUBKTNV-1" source="JyhttoTleoo9SE21aR-v-56" target="JyhttoTleoo9SE21aR-v-58">
          <mxGeometry relative="1" as="geometry" />
        </mxCell>
        <mxCell id="JyhttoTleoo9SE21aR-v-56" value="Relu" style="rounded=1;whiteSpace=wrap;html=1;fontSize=12;glass=0;strokeWidth=1;shadow=0;fillColor=#fff2cc;strokeColor=#d6b656;" vertex="1" parent="WIyWlLk6GJQsqaUBKTNV-1">
          <mxGeometry x="280" y="420" width="30" height="40" as="geometry" />
        </mxCell>
        <mxCell id="JyhttoTleoo9SE21aR-v-57" style="edgeStyle=orthogonalEdgeStyle;rounded=0;orthogonalLoop=1;jettySize=auto;html=1;exitX=1;exitY=0.5;exitDx=0;exitDy=0;entryX=0;entryY=0.5;entryDx=0;entryDy=0;" edge="1" parent="WIyWlLk6GJQsqaUBKTNV-1" source="JyhttoTleoo9SE21aR-v-58" target="JyhttoTleoo9SE21aR-v-60">
          <mxGeometry relative="1" as="geometry" />
        </mxCell>
        <mxCell id="JyhttoTleoo9SE21aR-v-58" value="Conv4" style="rounded=1;whiteSpace=wrap;html=1;fontSize=12;glass=0;strokeWidth=1;shadow=0;fillColor=#ffe6cc;strokeColor=#d79b00;" vertex="1" parent="WIyWlLk6GJQsqaUBKTNV-1">
          <mxGeometry x="340" y="420" width="70" height="40" as="geometry" />
        </mxCell>
        <mxCell id="JyhttoTleoo9SE21aR-v-59" style="edgeStyle=orthogonalEdgeStyle;rounded=0;orthogonalLoop=1;jettySize=auto;html=1;exitX=1;exitY=0.5;exitDx=0;exitDy=0;entryX=0;entryY=0.5;entryDx=0;entryDy=0;" edge="1" parent="WIyWlLk6GJQsqaUBKTNV-1" source="JyhttoTleoo9SE21aR-v-60" target="JyhttoTleoo9SE21aR-v-61">
          <mxGeometry relative="1" as="geometry" />
        </mxCell>
        <mxCell id="JyhttoTleoo9SE21aR-v-60" value="GN&lt;br&gt;16" style="rounded=1;whiteSpace=wrap;html=1;fontSize=12;glass=0;strokeWidth=1;shadow=0;fillColor=#d5e8d4;strokeColor=#82b366;" vertex="1" parent="WIyWlLk6GJQsqaUBKTNV-1">
          <mxGeometry x="440" y="420" width="40" height="40" as="geometry" />
        </mxCell>
        <mxCell id="JyhttoTleoo9SE21aR-v-61" value="Relu" style="rounded=1;whiteSpace=wrap;html=1;fontSize=12;glass=0;strokeWidth=1;shadow=0;fillColor=#fff2cc;strokeColor=#d6b656;" vertex="1" parent="WIyWlLk6GJQsqaUBKTNV-1">
          <mxGeometry x="500" y="420" width="30" height="40" as="geometry" />
        </mxCell>
        <mxCell id="JyhttoTleoo9SE21aR-v-62" style="edgeStyle=orthogonalEdgeStyle;rounded=0;orthogonalLoop=1;jettySize=auto;html=1;exitX=1;exitY=0.5;exitDx=0;exitDy=0;entryX=0;entryY=0.5;entryDx=0;entryDy=0;" edge="1" parent="WIyWlLk6GJQsqaUBKTNV-1" source="JyhttoTleoo9SE21aR-v-47" target="JyhttoTleoo9SE21aR-v-52">
          <mxGeometry relative="1" as="geometry">
            <mxPoint x="70" y="440" as="sourcePoint" />
            <Array as="points">
              <mxPoint x="550" y="340" />
              <mxPoint x="550" y="390" />
              <mxPoint x="70" y="390" />
              <mxPoint x="70" y="440" />
            </Array>
          </mxGeometry>
        </mxCell>
        <mxCell id="JyhttoTleoo9SE21aR-v-64" style="edgeStyle=orthogonalEdgeStyle;rounded=0;orthogonalLoop=1;jettySize=auto;html=1;" edge="1" parent="WIyWlLk6GJQsqaUBKTNV-1">
          <mxGeometry relative="1" as="geometry">
            <mxPoint x="90" y="340" as="sourcePoint" />
            <mxPoint x="490" y="340" as="targetPoint" />
            <Array as="points">
              <mxPoint x="90" y="310" />
              <mxPoint x="490" y="310" />
            </Array>
          </mxGeometry>
        </mxCell>
        <mxCell id="JyhttoTleoo9SE21aR-v-65" style="edgeStyle=orthogonalEdgeStyle;rounded=0;orthogonalLoop=1;jettySize=auto;html=1;" edge="1" parent="WIyWlLk6GJQsqaUBKTNV-1">
          <mxGeometry relative="1" as="geometry">
            <mxPoint x="90" y="440" as="sourcePoint" />
            <mxPoint x="490" y="440" as="targetPoint" />
            <Array as="points">
              <mxPoint x="90" y="410" />
              <mxPoint x="490" y="410" />
            </Array>
          </mxGeometry>
        </mxCell>
        <mxCell id="JyhttoTleoo9SE21aR-v-66" style="edgeStyle=orthogonalEdgeStyle;rounded=0;orthogonalLoop=1;jettySize=auto;html=1;exitX=1;exitY=0.5;exitDx=0;exitDy=0;entryX=0;entryY=0.5;entryDx=0;entryDy=0;" edge="1" parent="WIyWlLk6GJQsqaUBKTNV-1" source="JyhttoTleoo9SE21aR-v-67" target="JyhttoTleoo9SE21aR-v-69">
          <mxGeometry relative="1" as="geometry" />
        </mxCell>
        <mxCell id="JyhttoTleoo9SE21aR-v-67" value="Conv1" style="rounded=1;whiteSpace=wrap;html=1;fontSize=12;glass=0;strokeWidth=1;shadow=0;fillColor=#ffe6cc;strokeColor=#d79b00;" vertex="1" parent="WIyWlLk6GJQsqaUBKTNV-1">
          <mxGeometry x="120" y="560" width="70" height="40" as="geometry" />
        </mxCell>
        <mxCell id="JyhttoTleoo9SE21aR-v-68" style="edgeStyle=orthogonalEdgeStyle;rounded=0;orthogonalLoop=1;jettySize=auto;html=1;exitX=1;exitY=0.5;exitDx=0;exitDy=0;" edge="1" parent="WIyWlLk6GJQsqaUBKTNV-1" source="JyhttoTleoo9SE21aR-v-69" target="JyhttoTleoo9SE21aR-v-71">
          <mxGeometry relative="1" as="geometry" />
        </mxCell>
        <mxCell id="JyhttoTleoo9SE21aR-v-69" value="GN&lt;br&gt;16" style="rounded=1;whiteSpace=wrap;html=1;fontSize=12;glass=0;strokeWidth=1;shadow=0;fillColor=#d5e8d4;strokeColor=#82b366;" vertex="1" parent="WIyWlLk6GJQsqaUBKTNV-1">
          <mxGeometry x="220" y="560" width="40" height="40" as="geometry" />
        </mxCell>
        <mxCell id="JyhttoTleoo9SE21aR-v-70" style="edgeStyle=orthogonalEdgeStyle;rounded=0;orthogonalLoop=1;jettySize=auto;html=1;exitX=1;exitY=0.5;exitDx=0;exitDy=0;entryX=0;entryY=0.5;entryDx=0;entryDy=0;" edge="1" parent="WIyWlLk6GJQsqaUBKTNV-1" source="JyhttoTleoo9SE21aR-v-71" target="JyhttoTleoo9SE21aR-v-73">
          <mxGeometry relative="1" as="geometry" />
        </mxCell>
        <mxCell id="JyhttoTleoo9SE21aR-v-71" value="Relu" style="rounded=1;whiteSpace=wrap;html=1;fontSize=12;glass=0;strokeWidth=1;shadow=0;fillColor=#fff2cc;strokeColor=#d6b656;" vertex="1" parent="WIyWlLk6GJQsqaUBKTNV-1">
          <mxGeometry x="280" y="560" width="30" height="40" as="geometry" />
        </mxCell>
        <mxCell id="JyhttoTleoo9SE21aR-v-72" style="edgeStyle=orthogonalEdgeStyle;rounded=0;orthogonalLoop=1;jettySize=auto;html=1;exitX=1;exitY=0.5;exitDx=0;exitDy=0;entryX=0;entryY=0.5;entryDx=0;entryDy=0;" edge="1" parent="WIyWlLk6GJQsqaUBKTNV-1" source="JyhttoTleoo9SE21aR-v-73" target="JyhttoTleoo9SE21aR-v-75">
          <mxGeometry relative="1" as="geometry" />
        </mxCell>
        <mxCell id="JyhttoTleoo9SE21aR-v-73" value="Conv2" style="rounded=1;whiteSpace=wrap;html=1;fontSize=12;glass=0;strokeWidth=1;shadow=0;fillColor=#ffe6cc;strokeColor=#d79b00;" vertex="1" parent="WIyWlLk6GJQsqaUBKTNV-1">
          <mxGeometry x="340" y="560" width="70" height="40" as="geometry" />
        </mxCell>
        <mxCell id="JyhttoTleoo9SE21aR-v-74" style="edgeStyle=orthogonalEdgeStyle;rounded=0;orthogonalLoop=1;jettySize=auto;html=1;exitX=1;exitY=0.5;exitDx=0;exitDy=0;entryX=0;entryY=0.5;entryDx=0;entryDy=0;" edge="1" parent="WIyWlLk6GJQsqaUBKTNV-1" source="JyhttoTleoo9SE21aR-v-75" target="JyhttoTleoo9SE21aR-v-76">
          <mxGeometry relative="1" as="geometry" />
        </mxCell>
        <mxCell id="JyhttoTleoo9SE21aR-v-75" value="GN&lt;br&gt;16" style="rounded=1;whiteSpace=wrap;html=1;fontSize=12;glass=0;strokeWidth=1;shadow=0;fillColor=#d5e8d4;strokeColor=#82b366;" vertex="1" parent="WIyWlLk6GJQsqaUBKTNV-1">
          <mxGeometry x="440" y="560" width="40" height="40" as="geometry" />
        </mxCell>
        <mxCell id="JyhttoTleoo9SE21aR-v-76" value="Relu" style="rounded=1;whiteSpace=wrap;html=1;fontSize=12;glass=0;strokeWidth=1;shadow=0;fillColor=#fff2cc;strokeColor=#d6b656;" vertex="1" parent="WIyWlLk6GJQsqaUBKTNV-1">
          <mxGeometry x="500" y="560" width="30" height="40" as="geometry" />
        </mxCell>
        <mxCell id="JyhttoTleoo9SE21aR-v-77" style="edgeStyle=orthogonalEdgeStyle;rounded=0;orthogonalLoop=1;jettySize=auto;html=1;exitX=1;exitY=0.5;exitDx=0;exitDy=0;entryX=0;entryY=0.5;entryDx=0;entryDy=0;" edge="1" parent="WIyWlLk6GJQsqaUBKTNV-1" target="JyhttoTleoo9SE21aR-v-67">
          <mxGeometry relative="1" as="geometry">
            <mxPoint x="70" y="580" as="sourcePoint" />
          </mxGeometry>
        </mxCell>
        <mxCell id="JyhttoTleoo9SE21aR-v-78" style="edgeStyle=orthogonalEdgeStyle;rounded=0;orthogonalLoop=1;jettySize=auto;html=1;exitX=1;exitY=0.5;exitDx=0;exitDy=0;entryX=0;entryY=0.5;entryDx=0;entryDy=0;" edge="1" parent="WIyWlLk6GJQsqaUBKTNV-1" source="JyhttoTleoo9SE21aR-v-79" target="JyhttoTleoo9SE21aR-v-81">
          <mxGeometry relative="1" as="geometry" />
        </mxCell>
        <mxCell id="JyhttoTleoo9SE21aR-v-79" value="Conv3" style="rounded=1;whiteSpace=wrap;html=1;fontSize=12;glass=0;strokeWidth=1;shadow=0;fillColor=#ffe6cc;strokeColor=#d79b00;" vertex="1" parent="WIyWlLk6GJQsqaUBKTNV-1">
          <mxGeometry x="120" y="660" width="70" height="40" as="geometry" />
        </mxCell>
        <mxCell id="JyhttoTleoo9SE21aR-v-80" style="edgeStyle=orthogonalEdgeStyle;rounded=0;orthogonalLoop=1;jettySize=auto;html=1;exitX=1;exitY=0.5;exitDx=0;exitDy=0;" edge="1" parent="WIyWlLk6GJQsqaUBKTNV-1" source="JyhttoTleoo9SE21aR-v-81" target="JyhttoTleoo9SE21aR-v-83">
          <mxGeometry relative="1" as="geometry" />
        </mxCell>
        <mxCell id="JyhttoTleoo9SE21aR-v-81" value="GN&lt;br&gt;16" style="rounded=1;whiteSpace=wrap;html=1;fontSize=12;glass=0;strokeWidth=1;shadow=0;fillColor=#d5e8d4;strokeColor=#82b366;" vertex="1" parent="WIyWlLk6GJQsqaUBKTNV-1">
          <mxGeometry x="220" y="660" width="40" height="40" as="geometry" />
        </mxCell>
        <mxCell id="JyhttoTleoo9SE21aR-v-82" style="edgeStyle=orthogonalEdgeStyle;rounded=0;orthogonalLoop=1;jettySize=auto;html=1;exitX=1;exitY=0.5;exitDx=0;exitDy=0;entryX=0;entryY=0.5;entryDx=0;entryDy=0;" edge="1" parent="WIyWlLk6GJQsqaUBKTNV-1" source="JyhttoTleoo9SE21aR-v-83" target="JyhttoTleoo9SE21aR-v-85">
          <mxGeometry relative="1" as="geometry" />
        </mxCell>
        <mxCell id="JyhttoTleoo9SE21aR-v-83" value="Relu" style="rounded=1;whiteSpace=wrap;html=1;fontSize=12;glass=0;strokeWidth=1;shadow=0;fillColor=#fff2cc;strokeColor=#d6b656;" vertex="1" parent="WIyWlLk6GJQsqaUBKTNV-1">
          <mxGeometry x="280" y="660" width="30" height="40" as="geometry" />
        </mxCell>
        <mxCell id="JyhttoTleoo9SE21aR-v-84" style="edgeStyle=orthogonalEdgeStyle;rounded=0;orthogonalLoop=1;jettySize=auto;html=1;exitX=1;exitY=0.5;exitDx=0;exitDy=0;entryX=0;entryY=0.5;entryDx=0;entryDy=0;" edge="1" parent="WIyWlLk6GJQsqaUBKTNV-1" source="JyhttoTleoo9SE21aR-v-85" target="JyhttoTleoo9SE21aR-v-87">
          <mxGeometry relative="1" as="geometry" />
        </mxCell>
        <mxCell id="JyhttoTleoo9SE21aR-v-85" value="Conv4" style="rounded=1;whiteSpace=wrap;html=1;fontSize=12;glass=0;strokeWidth=1;shadow=0;fillColor=#ffe6cc;strokeColor=#d79b00;" vertex="1" parent="WIyWlLk6GJQsqaUBKTNV-1">
          <mxGeometry x="340" y="660" width="70" height="40" as="geometry" />
        </mxCell>
        <mxCell id="JyhttoTleoo9SE21aR-v-86" style="edgeStyle=orthogonalEdgeStyle;rounded=0;orthogonalLoop=1;jettySize=auto;html=1;exitX=1;exitY=0.5;exitDx=0;exitDy=0;entryX=0;entryY=0.5;entryDx=0;entryDy=0;" edge="1" parent="WIyWlLk6GJQsqaUBKTNV-1" source="JyhttoTleoo9SE21aR-v-87" target="JyhttoTleoo9SE21aR-v-88">
          <mxGeometry relative="1" as="geometry" />
        </mxCell>
        <mxCell id="JyhttoTleoo9SE21aR-v-87" value="GN&lt;br&gt;16" style="rounded=1;whiteSpace=wrap;html=1;fontSize=12;glass=0;strokeWidth=1;shadow=0;fillColor=#d5e8d4;strokeColor=#82b366;" vertex="1" parent="WIyWlLk6GJQsqaUBKTNV-1">
          <mxGeometry x="440" y="660" width="40" height="40" as="geometry" />
        </mxCell>
        <mxCell id="JyhttoTleoo9SE21aR-v-88" value="Relu" style="rounded=1;whiteSpace=wrap;html=1;fontSize=12;glass=0;strokeWidth=1;shadow=0;fillColor=#fff2cc;strokeColor=#d6b656;" vertex="1" parent="WIyWlLk6GJQsqaUBKTNV-1">
          <mxGeometry x="540" y="660" width="30" height="40" as="geometry" />
        </mxCell>
        <mxCell id="JyhttoTleoo9SE21aR-v-89" style="edgeStyle=orthogonalEdgeStyle;rounded=0;orthogonalLoop=1;jettySize=auto;html=1;exitX=1;exitY=0.5;exitDx=0;exitDy=0;entryX=0;entryY=0.5;entryDx=0;entryDy=0;" edge="1" parent="WIyWlLk6GJQsqaUBKTNV-1" source="JyhttoTleoo9SE21aR-v-76" target="JyhttoTleoo9SE21aR-v-79">
          <mxGeometry relative="1" as="geometry">
            <mxPoint x="70" y="680" as="sourcePoint" />
            <Array as="points">
              <mxPoint x="550" y="580" />
              <mxPoint x="550" y="630" />
              <mxPoint x="70" y="630" />
              <mxPoint x="70" y="680" />
            </Array>
          </mxGeometry>
        </mxCell>
        <mxCell id="JyhttoTleoo9SE21aR-v-90" style="edgeStyle=orthogonalEdgeStyle;rounded=0;orthogonalLoop=1;jettySize=auto;html=1;fillColor=#ffe6cc;strokeColor=#d79b00;" edge="1" parent="WIyWlLk6GJQsqaUBKTNV-1">
          <mxGeometry relative="1" as="geometry">
            <mxPoint x="90" y="580" as="sourcePoint" />
            <mxPoint x="490" y="680" as="targetPoint" />
            <Array as="points">
              <mxPoint x="90" y="610" />
              <mxPoint x="490" y="610" />
            </Array>
          </mxGeometry>
        </mxCell>
        <mxCell id="JyhttoTleoo9SE21aR-v-93" style="edgeStyle=orthogonalEdgeStyle;rounded=0;orthogonalLoop=1;jettySize=auto;html=1;fillColor=#ffe6cc;strokeColor=#d79b00;" edge="1" parent="WIyWlLk6GJQsqaUBKTNV-1">
          <mxGeometry relative="1" as="geometry">
            <mxPoint x="320" y="580" as="sourcePoint" />
            <mxPoint x="500" y="680" as="targetPoint" />
            <Array as="points">
              <mxPoint x="320" y="620" />
              <mxPoint x="500" y="620" />
            </Array>
          </mxGeometry>
        </mxCell>
        <mxCell id="JyhttoTleoo9SE21aR-v-94" style="edgeStyle=orthogonalEdgeStyle;rounded=0;orthogonalLoop=1;jettySize=auto;html=1;fillColor=#ffe6cc;strokeColor=#d79b00;" edge="1" parent="WIyWlLk6GJQsqaUBKTNV-1">
          <mxGeometry relative="1" as="geometry">
            <mxPoint x="90" y="680" as="sourcePoint" />
            <mxPoint x="510" y="680" as="targetPoint" />
            <Array as="points">
              <mxPoint x="90" y="640" />
              <mxPoint x="510" y="640" />
            </Array>
          </mxGeometry>
        </mxCell>
        <mxCell id="JyhttoTleoo9SE21aR-v-95" style="edgeStyle=orthogonalEdgeStyle;rounded=0;orthogonalLoop=1;jettySize=auto;html=1;fillColor=#ffe6cc;strokeColor=#d79b00;" edge="1" parent="WIyWlLk6GJQsqaUBKTNV-1">
          <mxGeometry relative="1" as="geometry">
            <mxPoint x="320" y="680" as="sourcePoint" />
            <mxPoint x="520" y="680" as="targetPoint" />
            <Array as="points">
              <mxPoint x="320" y="650" />
              <mxPoint x="520" y="650" />
            </Array>
          </mxGeometry>
        </mxCell>
      </root>
    </mxGraphModel>
  </diagram>
</mxfile>
